<?xml version="1.0" standalone="no"?>
<!DOCTYPE svg PUBLIC "-//W3C//DTD SVG 20010904//EN"
 "http://www.w3.org/TR/2001/REC-SVG-20010904/DTD/svg10.dtd">
<svg version="1.0" xmlns="http://www.w3.org/2000/svg"
 width="500.000000pt" height="500.000000pt" viewBox="0 0 500.000000 500.000000"
 preserveAspectRatio="xMidYMid meet">
<metadata>
Created by potrace 1.15, written by Peter Selinger 2001-2017
</metadata>
<g transform="translate(0.000000,500.000000) scale(0.100000,-0.100000)"
fill="#000000" stroke="none">
<path d="M1665 3716 c-44 -7 -109 -21 -143 -30 -273 -72 -449 -237 -519 -486
-14 -52 -18 -100 -17 -240 0 -211 10 -254 94 -425 73 -147 139 -242 325 -460
111 -130 922 -928 1015 -997 93 -70 121 -56 349 166 102 100 253 247 335 327
638 617 860 920 906 1237 16 105 8 316 -15 397 -68 250 -270 428 -555 490
-185 40 -277 41 -437 4 -179 -41 -366 -158 -476 -299 l-27 -35 -27 35 c-180
232 -519 364 -808 316z m280 -242 c105 -25 220 -89 296 -164 74 -74 106 -128
138 -235 24 -80 27 -85 61 -108 44 -30 121 -16 153 27 4 6 19 48 33 93 58 190
206 325 419 384 197 54 477 -6 608 -130 106 -100 143 -212 134 -406 -4 -66
-13 -144 -21 -174 -40 -146 -201 -381 -426 -625 -31 -34 -63 -69 -71 -78 -26
-32 -758 -738 -764 -738 -24 0 -831 797 -956 944 -171 202 -282 376 -315 499
-8 28 -18 105 -21 169 -10 191 29 310 134 409 79 75 184 118 348 144 87 14
158 11 250 -11z"/>
</g>
</svg>
